<svg width="11" height="13" viewBox="0 0 11 13" fill="currentColor" xmlns="http://www.w3.org/2000/svg">
<path fill-rule="evenodd" clip-rule="evenodd" d="M7.66368 1.74265H10.4941C10.6173 1.74265 10.7355 1.79159 10.8226 1.8787C10.9097 1.96581 10.9586 2.08396 10.9586 2.20716C10.9586 2.33036 10.9097 2.44851 10.8226 2.53562C10.7355 2.62274 10.6173 2.67168 10.4941 2.67168H9.82677V10.2371C9.82677 10.771 9.6147 11.2829 9.23721 11.6604C8.85972 12.0379 8.34773 12.25 7.81387 12.25H3.39477C2.86092 12.25 2.34893 12.0379 1.97144 11.6604C1.59394 11.2829 1.38187 10.771 1.38187 10.2371V2.67168H0.714516C0.591319 2.67168 0.473167 2.62274 0.386054 2.53562C0.29894 2.44851 0.25 2.33036 0.25 2.20716C0.25 2.08396 0.29894 1.96581 0.386054 1.8787C0.473167 1.79159 0.591319 1.74265 0.714516 1.74265H3.54497V1.48871C3.54497 1.16018 3.67547 0.845113 3.90778 0.61281C4.14008 0.380506 4.45515 0.25 4.78368 0.25H6.42497C6.75349 0.25 7.06857 0.380506 7.30087 0.61281C7.53317 0.845113 7.66368 1.16018 7.66368 1.48871V1.74265ZM4.5647 1.26973C4.50663 1.32781 4.474 1.40658 4.474 1.48871V1.74265H6.73464V1.48871C6.73464 1.40658 6.70202 1.32781 6.64394 1.26973C6.58587 1.21166 6.5071 1.17903 6.42497 1.17903H4.78368C4.70155 1.17903 4.62278 1.21166 4.5647 1.26973ZM8.58028 11.0035C8.78355 10.8002 8.89774 10.5246 8.89774 10.2371V2.67168H2.3109V10.2371C2.3109 10.5246 2.4251 10.8002 2.62836 11.0035C2.83163 11.2068 3.10731 11.321 3.39477 11.321H7.81387C8.10133 11.321 8.37702 11.2068 8.58028 11.0035ZM5.13965 4.78076H6.06868V9.62412H5.13965V4.78076ZM4.21089 4.78076H3.28186V9.62412H4.21089V4.78076ZM6.9978 4.78076H7.92684V9.62412H6.9978V4.78076Z"/>
</svg>
